<svg xmlns="http://www.w3.org/2000/svg" viewBox="0 0 64 64" fill="none">
  <!-- Background circle with warm dark color -->
  <rect width="64" height="64" rx="14" fill="#1a1008"/>

  <!-- Steam wisps -->
  <path d="M22 10 Q23 7 22 4" stroke="#c97d2e" stroke-width="1.8" stroke-linecap="round" fill="none" opacity="0.7"/>
  <path d="M27 10 Q28.5 6.5 27 3" stroke="#c97d2e" stroke-width="1.8" stroke-linecap="round" fill="none" opacity="0.7"/>
  <path d="M32 10 Q33 7 32 4" stroke="#c97d2e" stroke-width="1.8" stroke-linecap="round" fill="none" opacity="0.7"/>

  <!-- Cup body -->
  <path d="M14 16 H44 L40 46 Q39.5 50 35 50 H23 Q18.5 50 18 46 Z" fill="#c97d2e"/>

  <!-- Cup highlight -->
  <path d="M16 16 H42 L38.5 44 Q38 48 34 48 H24 Q20 48 19.5 44 Z" fill="#e8973a"/>

  <!-- Inner liquid (coffee) -->
  <path d="M20 20 H38 L35.5 41 Q35 44 32 44 H26 Q23 44 22.5 41 Z" fill="#6b3a1f"/>

  <!-- Coffee surface shine -->
  <ellipse cx="29" cy="21.5" rx="8" ry="2" fill="#8b4f2a" opacity="0.6"/>

  <!-- Handle -->
  <path d="M44 22 Q54 22 54 30 Q54 38 44 38" stroke="#c97d2e" stroke-width="3.5" stroke-linecap="round" fill="none"/>
  <path d="M44 25 Q50 25 50 30 Q50 35 44 35" stroke="#e8973a" stroke-width="2" stroke-linecap="round" fill="none"/>

  <!-- Saucer -->
  <ellipse cx="29" cy="51" rx="18" ry="3.5" fill="#c97d2e"/>
  <ellipse cx="29" cy="51" rx="14" ry="2.5" fill="#e8973a"/>
</svg>